<svg xmlns="http://www.w3.org/2000/svg" viewBox="0 0 512 512">
  <rect width="512" height="512" rx="112" fill="#020617"/>
  <rect x="92" y="126" width="328" height="260" rx="54" fill="#10b981"/>
  <path d="M126 166h234c34 0 62 28 62 62v118H126c-34 0-62-28-62-62v-56c0-34 28-62 62-62Z" fill="#ecfdf5"/>
  <path d="M126 166h222c41 0 74 33 74 74v28H168c-42 0-76-34-76-76v-4c0-12 10-22 22-22h12Z" fill="#d1fae5"/>
  <circle cx="354" cy="306" r="26" fill="#020617"/>
  <path d="M178 222h118M178 268h86" stroke="#059669" stroke-width="28" stroke-linecap="round"/>
</svg>
